<svg width="512" height="512" viewBox="0 0 48 48" xmlns="http://www.w3.org/2000/svg"><path d="m13.015 22.5 7.061 7.06a1.25 1.25 0 0 1-1.666 1.86l-.101-.091-9.193-9.193a1.25 1.25 0 0 1-.091-1.666l.091-.101 9.193-9.193a1.25 1.25 0 0 1 1.858 1.666l-.09.102L13.018 20H22c3.254 0 6.28.72 8.904 2.099l.41.223a16.5 16.5 0 0 1 6.364 6.363C39.202 31.403 40 34.575 40 38a1.25 1.25 0 0 1-2.5 0c0-3.004-.692-5.755-2.003-8.092a14 14 0 0 0-5.405-5.405c-2.207-1.238-4.783-1.924-7.594-1.997L22 22.5zl7.061 7.06z" fill="#212121"/></svg>